<svg xmlns="http://www.w3.org/2000/svg" width="400" height="400" viewBox="0 0 124 124">
  <defs>
    <style type="text/css">
      .five {
        fill: red;
        font-weight: bold
      }
    </style>
  </defs>
  <g stroke="black" stroke-width=".5" fill="none">
    <circle cx="100" cy="70" r="10"/>
    <circle cx="97" cy="67" r="1"/>
    <circle cx="103" cy="67" r="1"/>
    <path d="M 96,73 q 4,-1,8,0"/>
    <line x1="100" y1="80" x2="100" y2="105"/>
    <line x1="100" y1="105" x2="88" y2="120"/>
    <line x1="100" y1="105" x2="112" y2="120"/>
    <line x1="90" y1="95" x2="100" y2="95"/>
    <line x1="100" y1="95" x2="110" y2="90"/>
  </g>
  <g stroke="black" fill="none">
    <circle cx="100" cy="55" r="2" stroke-width="1" />
    <circle cx="95" cy="45" r="4" stroke-width="1.5" />
    <path stroke-miterlimit="1"
      d="M 90,35
        q -5,10,-9,0
          -5,10,-9,0
          -5,10,-9,0
          -5,10,-9,0
          -5,10,-9,0
          -5,10,-9,0
          -5,10,-9,0
          -5,10,-9,0
          -10,-5,0,-10
          -10,-5,0,-10
          5,-10,9,0
          5,-10,9,0
          5,-10,9,0
          5,-10,9,0
          5,-10,9,0
          5,-10,9,0
          5,-10,9,0
          5,-10,9,0
          10,5,0,10
          10,5,0,10
        "
      stroke-width="2"
      />
  </g>
  <text x="20" y="30" fill="#000" letter-spacing="4">1234<tspan class="five" letter-spacing="0">5?</tspan></text>
</svg>
